<?xml version="1.0" encoding="utf-8"?>
<!-- Generator: Adobe Illustrator 28.0.0, SVG Export Plug-In . SVG Version: 6.00 Build 0)  -->
<svg version="1.1" id="Layer_1" xmlns="http://www.w3.org/2000/svg" xmlns:xlink="http://www.w3.org/1999/xlink" x="0px" y="0px"
	 viewBox="0 0 3232 661" style="enable-background:new 0 0 3232 661;" xml:space="preserve">
<style type="text/css">
	.st0{fill:#FFFFFF;}
</style>
<g id="Home_-_Grey">
	<g>
		<path class="st0" d="M2820,588.9c-6.3,0-11.8,1.1-16.4,3.4c-4.6,2.3-8.1,4.6-10.4,6.8c-2.3,2.3-4.4,4.8-6.3,7.4
			c-1.9,2.7-3.7,5.5-5.5,8.4s-3.3,6.4-4.8,10.4c-1,2.8-1.7,5.8-2.1,9c9-2.5,18.8-4.9,29.3-7.2h-13.6c3.7-10.1,9.9-17.3,18.4-21.4
			V626c4.2-0.9,8.5-1.7,12.9-2.5v-34.6H2820L2820,588.9z"/>
		<path class="st0" d="M2808.5,631.3h-4.8c-10.5,2.3-20.3,4.7-29.3,7.2c-0.2,1.4-0.4,2.8-0.4,4.3h47.5v-15
			c-4.4,0.8-8.8,1.7-12.9,2.5V631.3L2808.5,631.3z"/>
		<rect x="2787" y="567" class="st0" width="12.9" height="13"/>
		<rect x="2805.5" y="567" class="st0" width="12.9" height="13"/>
		<path class="st0" d="M2863.3,628.5v2.5h-34.2v11.7h47.6v-12.6c0-3.3-0.4-6.7-1.1-10c-4.5,0.5-8.9,0.9-13.2,1.4
			C2862.9,623.7,2863.2,626,2863.3,628.5L2863.3,628.5z"/>
		<path class="st0" d="M2860.4,593.2c-5.3-2.9-11-4.4-17.1-4.4c-0.8,0-1.6,0-2.3,0.1c-0.9,0-1.7,0-2.6,0.1v13.3
			c13.5-0.6,21.5,4.4,24.1,15.1c4.3-0.5,8.7-1,13.2-1.4c-0.6-2.7-1.4-5.5-2.5-8.2C2870.5,601.4,2866.3,596.5,2860.4,593.2z"/>
		<rect x="2944.6" y="648.2" class="st0" width="12.9" height="13"/>
		<path class="st0" d="M2894.6,608.7c0.1-4.4,2.1-6.8,5.8-7.4h7.8v12c4.2-0.2,8.6-0.5,12.9-0.7v-23.5h-22.2
			c-10.2,1-15.8,6.5-16.8,16.7v9.4c4.1-0.4,8.2-0.7,12.4-1L2894.6,608.7L2894.6,608.7z"/>
		<path class="st0" d="M2989.5,564.5v47.8c4.2,0.1,8.4,0.3,12.8,0.4v-48.3H2989.5z"/>
		<path class="st0" d="M2989.5,631h-13.9v-14.8c-4.6-0.1-9.1-0.1-13.6-0.1V631h-40.9v-14.1c-4.4,0.2-8.7,0.4-12.9,0.7V631h-7.3
			c-4.3-0.7-6.4-3.4-6.2-8v-4.5c-4.2,0.3-8.4,0.7-12.4,1v4.8c0.9,13.9,9.7,20,26.4,18.4c0.5,3.7-1.2,5.7-5,6h-20.9v12.5h20.3
			c6.4,0,11.3-1.9,14.8-5.7c2.3-3.1,3.4-7.4,3.4-12.8h81.1V617c-4.3-0.2-8.6-0.3-12.8-0.4L2989.5,631L2989.5,631z"/>
		<path class="st0" d="M2975.6,607c-2.2-10.9-8.9-16.7-20.2-17.3h-22.7v11.8h21.8c5.1,1.4,7.6,4.3,7.5,8.8v1.6c4.5,0,9,0,13.6,0.1
			L2975.6,607L2975.6,607z"/>
		<path class="st0" d="M3009.5,642.7h12.6V618c-4.2-0.2-8.4-0.5-12.6-0.7V642.7L3009.5,642.7z"/>
		<path class="st0" d="M3009.5,564.5v48.6c4.1,0.2,8.3,0.4,12.6,0.7v-49.3L3009.5,564.5L3009.5,564.5z"/>
		<path class="st0" d="M3142.3,630.8v0.2h-9.6v-1.6c-4-0.6-8-1.2-12-1.7v3.3h-14.1v-5.2c-4.2-0.5-8.5-1-12.6-1.5v12
			c0.4,8.3-2.6,12.5-9.1,12.3h-16.6c-5.8-0.1-8.7-3.2-8.9-9.2v-18.7c-4.2-0.4-8.4-0.7-12.6-1.1v14.9c0,9.7,1.7,16.5,5.1,20.4
			c3.5,4.1,7.9,6.1,13.2,6.2h21.3c0.7,0,1.4,0.1,2,0.1c4.8,0,8.7-1.3,11.7-4c3.4-3,5.6-7.9,6.5-14.6h97.3v-1.3
			C3182.6,637.3,3162.1,633.8,3142.3,630.8L3142.3,630.8z"/>
		<path class="st0" d="M3203.9,607.1c-0.7-4.8-2.2-8.5-4.4-11.1c-2.2-2.6-4.4-4.3-6.6-5.3c-2.2-0.9-4.4-1.4-6.6-1.5h-44v37.5
			c19.8,3,40.3,6.5,61.6,10.6L3203.9,607.1L3203.9,607.1z M3190.9,626.8h-36.7v-25.3h29.2c4.6,0.6,7.1,3,7.5,7.2V626.8z"/>
		<path class="st0" d="M3132.7,605.2h-12v18.3c3.9,0.5,7.9,1.1,12,1.7V605.2L3132.7,605.2z"/>
		<path class="st0" d="M3059.3,607.7h-12.6v7.8c4.1,0.3,8.3,0.7,12.6,1.1V607.7L3059.3,607.7z"/>
		<path class="st0" d="M3106.6,564.5H3094v55.6c4.2,0.5,8.4,1,12.6,1.5V564.5L3106.6,564.5z"/>
		<rect x="3213.2" y="564.5" class="st0" width="12.6" height="74"/>
		<path class="st0" d="M3226,554.5h-7.3V551c-0.1-1.1,0.4-1.7,1.6-1.6h5.7v-4.9h-8.2c-1.6,1.5-2.6,3-2.7,4.4v5.6h-1.8v4.7h12.7
			V554.5L3226,554.5z"/>
	</g>
</g>
<g>
	<g>
		<rect x="138.8" y="23.2" class="st0" width="43.7" height="43.7"/>
		<rect x="76.4" y="23.2" class="st0" width="43.7" height="43.7"/>
		<rect x="266.3" y="286.3" class="st0" width="43.7" height="43.7"/>
		<rect x="203.9" y="286.3" class="st0" width="43.7" height="43.7"/>
		<rect x="616.8" y="286.3" class="st0" width="43.7" height="43.7"/>
		<rect x="554.4" y="286.3" class="st0" width="43.7" height="43.7"/>
		<rect x="727.8" y="23.2" class="st0" width="43.7" height="43.7"/>
		<rect x="669.6" y="23.2" class="st0" width="43.7" height="43.7"/>
		<path class="st0" d="M727.2,224.9h-73.4V98h-42.4v126.9h-75.1v-28.1c-2.5-38-22.9-59.7-61.1-65.1h-90.9v-21.2l129.2-95.7h-68.2
			L339.3,93.3v81.1h120.4c19.7-0.1,31.2,8.5,34.5,26v24.5h-191V98h-42.4v126.9h-73.6V97.2c-23.3-0.1-44.5,3.9-63.5,12.3
			c-19.1,8.3-34.8,19.2-47.1,32.6c-32.2,35.2-49,76-50.3,122.3h43.7l5.6-26.8c13.6-41.6,36-70.3,67.2-86.1v112.9h626.9V98h-42.4
			L727.2,224.9L727.2,224.9z"/>
		<path class="st0" d="M879.9,169.8v55.1h-43.3V14.8h-42.4v249.6h85.7V304h47.2c50.1,0,75.1-25.9,75.1-77.6V98h-43.9
			C907.6,99.3,881.4,123.2,879.9,169.8L879.9,169.8z M958.9,244.3c0.7,11.1-5.8,16.9-19.5,17.5h-14.8V156.9c1-10.3,7.6-15.7,20-16.4
			h14.3L958.9,244.3L958.9,244.3z"/>
		<rect x="1242.2" y="23.2" class="st0" width="43.7" height="43.7"/>
		<rect x="1184" y="23.2" class="st0" width="43.7" height="43.7"/>
		<path class="st0" d="M1241.6,224.9h-75.9V98h-74.9c-34.4,3.2-53.2,22-56.6,56.4v48.1c3.2,46.9,32.9,67.5,89,62
			c1.7,12.3-3.9,19.1-16.8,20.2h-70.5v42.2h68.4c21.6,0,38.3-6.4,49.9-19.1c7.6-10.5,11.4-25,11.4-43.3H1284V98h-42.4V224.9z
			 M1122,224.9h-24.8c-14.6-2.5-21.6-11.5-21-27V164c0.4-14.7,6.9-23,19.6-25h26.2V224.9L1122,224.9z"/>
		<path class="st0" d="M1309.4,154.4v48.1c3.2,46.9,32.9,67.5,89,62c1.7,12.3-3.9,19.1-16.8,20.2h-70.5v42.2h68.4
			c21.6,0,38.3-6.4,49.9-19.1c7.6-10.5,11.4-25,11.4-43.3V98H1366C1331.6,101.2,1312.7,120,1309.4,154.4L1309.4,154.4z M1397.2,139
			v85.9h-24.8c-14.6-2.5-21.6-11.5-21-27V164c0.4-14.7,6.9-23,19.6-25L1397.2,139L1397.2,139z"/>
		<polygon class="st0" points="1604.8,224.9 1551.5,224.9 1551.5,14.8 1509.1,14.8 1509.1,224.9 1465.8,224.9 1465.8,264.4 
			1647.2,264.4 1647.2,224.9 1647.2,14.8 1604.8,14.8 		"/>
		<rect x="1671.5" y="14.8" class="st0" width="42.4" height="249.6"/>
		<rect x="1909.9" y="23.2" class="st0" width="43.7" height="43.7"/>
		<rect x="1847.5" y="23.2" class="st0" width="43.7" height="43.7"/>
		<path class="st0" d="M2610.9,224.9h-42.6V98h-43.9c-50.8,1.2-76.9,25.2-78.4,71.8v55.1h-39.1v-66.8c-7.4-36.9-30-56.3-68-58.2
			h-76.5v39.7h73.4c17.3,4.6,25.8,14.4,25.4,29.5v55.7h-140.6v-66.6c-3.3-16.2-8.4-28.4-15.2-36.4s-14.2-14-22.4-17.8
			s-15.8-5.8-23.2-6.1h-112.3V14.8H2005v210.1h-46.6V97.2c-23.3-0.1-44.5,3.9-63.6,12.3c-19.1,8.3-34.8,19.2-47.1,32.7
			c-32.2,35.2-48.9,76-50.3,122.3h43.7l5.6-26.8c13.6-41.6,36-70.3,67.2-86.1v112.9H2446V304h47.2c35.2,0,58.1-13.2,68.6-39.5h92.1
			V14.8h-43.1L2610.9,224.9L2610.9,224.9z M2175.3,224.9h-127.9v-85.3h102.8c15.5,2.1,23.9,10.2,25.2,24.3V224.9L2175.3,224.9z
			 M2525,244.3c0.7,11.1-5.8,16.9-19.6,17.5h-14.8V156.9c1-10.3,7.6-15.7,20-16.4h14.4V244.3L2525,244.3z"/>
		<rect x="2678.3" y="14.8" class="st0" width="42.4" height="249.6"/>
	</g>
	<g>
		<path class="st0" d="M111.1,375.1l-86.4,283h46.9l14.5-53.3H170l14.5,53.3h46.9l-86.4-283H111.1L111.1,375.1z M97.5,562.7
			L128,450.2l30.5,112.5H97.5L97.5,562.7z"/>
		<path class="st0" d="M360.6,592.3c0,8.8-2.3,15.6-7,20.4s-11.4,7.2-20.2,7.2s-15.8-2.4-20.5-7.3c-4.7-4.9-7.1-11.8-7.1-20.7V456.1
			h-44.4v136.6c0,22.1,4.9,39,14.6,50.7s23.7,17.6,41.8,17.6c11.8,0,21.5-3.3,29-10c5.8-5.2,10.4-11.5,13.8-19.1v26.2h44.2v-202
			h-44.2L360.6,592.3L360.6,592.3z"/>
		<path class="st0" d="M502.1,397.3h-44.6v58.8h-19.9v40.1h19.9v109.4c0,17.3,3.9,30.5,11.8,39.7c7.9,9.2,20.5,13.8,38,13.8h22.6
			v-42.8h-15.4c-4,0-7.1-1.4-9.2-4.2c-2.1-2.8-3.2-6.7-3.2-11.6V496.2h27.8v-40.1h-27.8L502.1,397.3L502.1,397.3z"/>
		<path class="st0" d="M637.9,452.8c-22.8,0-40.6,6.2-53.2,18.6c-12.7,12.4-19,30-19,52.8v64.6c0,23,6.3,40.7,19,53.3
			c12.7,12.6,30.4,18.9,53.2,18.9s40.7-6.2,53.3-18.7s18.9-30.1,18.9-52.9v-65.2c0-22.8-6.3-40.4-18.9-52.8
			C678.6,459,660.9,452.8,637.9,452.8L637.9,452.8z M665.7,587.8c0,9.7-2.4,17.3-7.2,22.9s-11.6,8.3-20.4,8.3s-15.7-2.8-20.6-8.3
			c-4.9-5.5-7.4-13.1-7.4-22.9v-62.3c0-9.7,2.5-17.2,7.4-22.6c4.9-5.3,11.8-8,20.6-8s15.6,2.7,20.4,8s7.2,12.8,7.2,22.6V587.8z"/>
		<path class="st0" d="M946.1,452.8c-11,0-21.2,3.3-30.4,10c-8.2,5.9-14.9,14.4-20.1,25.3c-2.3-6.8-5.4-12.7-9.4-17.7
			c-9.4-11.7-22.8-17.6-40.2-17.6c-11.3,0-21.3,3.2-30,9.6c-6.6,4.9-12.2,11.5-16.7,19.8v-26.1h-44.8v202h44.8V525
			c0-9.7,2.4-17.2,7.2-22.5c4.8-5.2,11.7-7.9,20.8-7.9s16.4,2.8,21.2,8.5c4.8,5.6,7.2,13.8,7.2,24.4v130.6h44.6V526.9
			c0-10.4,2.4-18.4,7.1-23.9c4.7-5.6,11.6-8.4,20.5-8.4c9.5,0,16.7,2.8,21.6,8.5c4.9,5.6,7.4,13.8,7.4,24.4v130.6h44.8V521.8
			c0-22-4.8-39.1-14.5-51.1S963.9,452.8,946.1,452.8L946.1,452.8z"/>
		<path class="st0" d="M1117.8,452.8c-17.3,0-31.7,3.9-43.3,11.7c-11.6,7.8-19.5,18.7-23.6,32.7l36,12.9c3.1-5.6,7.3-9.9,12.7-12.9
			c5.3-3,11.3-4.6,18.1-4.6c9.5,0,16.8,2.5,21.9,7.5c5.1,5,7.7,12,7.7,20.9v16.7h-35.8c-22.3,0-39.2,5.3-50.5,16s-17,26.5-17,47.5
			s5,35.1,14.9,45c9.9,9.9,24.6,14.9,43.9,14.9c8.8,0,16.6-1.4,23.3-4.1c6.7-2.7,12.3-6.8,16.7-12.3c1.8-2.2,3.2-4.7,4.5-7.4v20.8
			h41.8v-138c0-21.4-6.2-38-18.6-49.7S1140.5,452.8,1117.8,452.8L1117.8,452.8z M1138.6,618.2c-5.7,3.9-14.2,5.8-25.5,5.8
			c-9.2,0-16.1-1.9-20.7-5.7s-6.9-9.6-6.9-17.2c0-9.2,2.2-16.1,6.6-20.7s11.1-6.9,20.1-6.9h35v27.4
			C1147.2,608.5,1144.3,614.3,1138.6,618.2L1138.6,618.2z"/>
		<path class="st0" d="M1286.3,397.3h-44.6v58.8h-19.8v40.1h19.8v109.4c0,17.3,3.9,30.5,11.8,39.7c7.8,9.2,20.5,13.8,38,13.8h22.6
			v-42.8h-15.4c-4,0-7.1-1.4-9.2-4.2c-2.1-2.8-3.2-6.7-3.2-11.6V496.2h27.8v-40.1h-27.8V397.3L1286.3,397.3z"/>
		<rect x="1353.2" y="375.9" class="st0" width="44.2" height="44.2"/>
		<rect x="1353.2" y="456.1" class="st0" width="44.2" height="202"/>
		<path class="st0" d="M1492.3,503.8c5.5-6.1,13.2-9.1,23.1-9.1c7.4,0,13.5,2.1,18.2,6.4s8,10.9,9.8,19.9l40.9-13.6
			c-2.9-18.3-10.1-31.9-21.6-40.9c-11.5-9-27.3-13.4-47.3-13.4c-24.4,0-43.1,6.5-56.2,19.6c-13.1,13.1-19.7,31.6-19.7,55.5v58.8
			c0,23.6,6.6,41.9,19.8,54.8c13.2,12.9,31.9,19.4,56.1,19.4c20,0,35.7-4.3,47.3-13c11.5-8.7,18.7-22,21.4-39.9l-40.9-14
			c-1.7,8.4-4.9,14.8-9.6,19c-4.7,4.2-10.8,6.3-18.2,6.3c-9.9,0-17.6-2.9-23.1-8.8c-5.5-5.8-8.3-14.1-8.3-24.7V529
			C1484,518.3,1486.8,509.8,1492.3,503.8L1492.3,503.8z"/>
		<path class="st0" d="M1826.3,551c-6.2-4-13.1-7-20.5-9c-7.5-1.9-14.8-3.6-21.9-4.9c-6.9-1.3-13.3-2.7-19.3-4.2s-10.8-3.7-14.5-6.5
			c-3.7-2.8-5.6-7-5.6-12.5c0-6.6,2.4-11.8,7.2-15.5c4.8-3.7,11.7-5.5,20.6-5.5c7.7,0,14.3,1.9,19.9,5.8c5.6,3.9,10.2,9.5,13.5,16.9
			l37.6-17.9c-4.5-14.8-12.8-26-24.7-33.6c-11.9-7.6-27.3-11.4-46.1-11.4c-21.9,0-39,5.4-51.3,16.2s-18.4,26-18.4,45.6
			c0,11,1.8,20,5.3,26.8c3.6,6.9,8.2,12.3,13.8,16.3c5.7,4,11.9,7.1,18.8,9.3c6.9,2.2,13.8,4.2,20.6,5.8c7.7,1.4,14.8,2.9,21.4,4.5
			c6.6,1.6,12,3.8,16.1,6.8c4.1,3,6.1,7.7,6.1,14c0,6.9-2.7,12.3-8.1,16.2c-5.4,3.9-13.1,5.8-23.1,5.8c-9.2,0-17.2-2.2-23.9-6.7
			c-6.8-4.5-12.1-11.1-16.2-19.8l-37.6,18.3c4.3,15.7,12.9,27.7,26,36.1c13,8.4,29.8,12.5,50.3,12.5c23.5,0,41.7-5.5,54.6-16.5
			c12.9-11,19.4-26.5,19.4-46.5c0-12.2-1.8-22-5.4-29.6C1837.4,560.8,1832.5,555.1,1826.3,551L1826.3,551z"/>
		<path class="st0" d="M1929.6,397.3h-44.6v58.8h-19.8v40.1h19.8v109.4c0,17.3,3.9,30.5,11.8,39.7c7.8,9.2,20.5,13.8,38.1,13.8h22.6
			v-42.8h-15.4c-4,0-7.1-1.4-9.2-4.2c-2.1-2.8-3.2-6.7-3.2-11.6V496.2h27.8v-40.1h-27.8V397.3L1929.6,397.3z"/>
		<path class="st0" d="M2065.7,452.8c-17.3,0-31.7,3.9-43.3,11.7c-11.6,7.8-19.5,18.7-23.7,32.7l36,12.9c3.1-5.6,7.3-9.9,12.7-12.9
			s11.4-4.6,18.1-4.6c9.5,0,16.8,2.5,21.9,7.5c5.1,5,7.7,12,7.7,20.9v16.7h-35.8c-22.3,0-39.2,5.3-50.5,16s-17,26.5-17,47.5
			s5,35.1,14.9,45c9.9,9.9,24.6,14.9,43.9,14.9c8.8,0,16.6-1.4,23.4-4.1c6.8-2.7,12.3-6.8,16.7-12.3c1.8-2.2,3.2-4.7,4.5-7.4v20.8
			h41.8v-138c0-21.4-6.2-38-18.6-49.7S2088.3,452.8,2065.7,452.8L2065.7,452.8z M2086.5,618.2c-5.7,3.9-14.2,5.8-25.5,5.8
			c-9.2,0-16.1-1.9-20.7-5.7s-6.9-9.6-6.9-17.2c0-9.2,2.2-16.1,6.6-20.7s11.1-6.9,20-6.9h35v27.4
			C2095,608.5,2092.2,614.3,2086.5,618.2L2086.5,618.2z"/>
		<path class="st0" d="M2234.2,397.3h-44.6v58.8h-19.9v40.1h19.9v109.4c0,17.3,3.9,30.5,11.8,39.7c7.9,9.2,20.5,13.8,38.1,13.8h22.6
			v-42.8h-15.4c-4,0-7.1-1.4-9.2-4.2c-2.1-2.8-3.2-6.7-3.2-11.6V496.2h27.8v-40.1h-27.8L2234.2,397.3L2234.2,397.3z"/>
		<rect x="2301.1" y="375.9" class="st0" width="44.2" height="44.2"/>
		<rect x="2301.1" y="456.1" class="st0" width="44.2" height="202"/>
		<path class="st0" d="M2459.5,452.8c-22.8,0-40.6,6.2-53.2,18.6c-12.7,12.4-19,30-19,52.8v64.6c0,23,6.3,40.7,19,53.3
			c12.6,12.6,30.4,18.9,53.2,18.9s40.7-6.2,53.3-18.7s18.9-30.1,18.9-52.9v-65.2c0-22.8-6.3-40.4-18.9-52.8
			C2500.3,459,2482.5,452.8,2459.5,452.8L2459.5,452.8z M2487.4,587.8c0,9.7-2.4,17.3-7.2,22.9c-4.8,5.5-11.6,8.3-20.4,8.3
			s-15.7-2.8-20.6-8.3c-4.9-5.5-7.4-13.1-7.4-22.9v-62.3c0-9.7,2.5-17.2,7.4-22.6s11.8-8,20.6-8s15.6,2.7,20.4,8s7.2,12.8,7.2,22.6
			V587.8z"/>
		<path class="st0" d="M2707.9,470.4c-9.5-11.7-23.1-17.6-40.8-17.6c-11.3,0-21.2,3.2-29.8,9.7c-6.4,4.9-11.9,11.5-16.3,19.8v-26.2
			h-44.8v202h44.8V525c0-9.7,2.4-17.2,7.1-22.5c4.7-5.2,11.6-7.9,20.7-7.9s16.5,2.7,21.4,8c4.9,5.3,7.4,13.2,7.4,23.5v131.9h44.6
			V520.5C2722.2,498.8,2717.5,482.1,2707.9,470.4L2707.9,470.4z"/>
	</g>
</g>
<g>
	<polygon class="st0" points="3215.2,499.4 3215.2,516.8 3202.3,516.8 3202.3,499.4 3191.4,499.4 3180.5,499.4 3180.5,516.8 
		3167.5,516.8 3167.5,499.4 3156.7,499.4 3145.7,499.4 3145.7,516.8 3132.8,516.8 3132.8,499.4 3121.9,499.4 3111,499.4 3111,516.8 
		3098,516.8 3098,499.4 3087.2,499.4 3076.2,499.4 3076.2,516.8 3063.3,516.8 3063.3,499.4 3052.4,499.4 3041.5,499.4 3041.5,516.8 
		3028.5,516.8 3028.5,499.4 3017.7,499.4 3006.7,499.4 3006.7,516.8 2993.8,516.8 2993.8,499.4 2982.9,499.4 2972,499.4 2972,516.8 
		2959,516.8 2959,499.4 2948.2,499.4 2937.2,499.4 2937.2,516.8 2924.3,516.8 2924.3,499.4 2913.4,499.4 2902.5,499.4 2902.5,516.8 
		2889.5,516.8 2889.5,499.4 2878.7,499.4 2867.7,499.4 2867.7,516.8 2854.8,516.8 2854.8,499.4 2843.9,499.4 2833,499.4 2833,516.8 
		2820,516.8 2820,499.4 2809.2,499.4 2798.2,499.4 2798.2,516.8 2785.3,516.8 2785.3,499.4 2774.3,499.4 2774.3,503.8 2780.9,503.8 
		2780.9,521.2 2802.6,521.2 2802.6,503.8 2809.2,503.8 2815.6,503.8 2815.6,521.2 2837.4,521.2 2837.4,503.8 2843.9,503.8 
		2850.4,503.8 2850.4,521.2 2872.1,521.2 2872.1,503.8 2878.7,503.8 2885.1,503.8 2885.1,521.2 2906.9,521.2 2906.9,503.8 
		2913.4,503.8 2919.9,503.8 2919.9,521.2 2941.6,521.2 2941.6,503.8 2948.2,503.8 2954.6,503.8 2954.6,521.2 2976.4,521.2 
		2976.4,503.8 2982.9,503.8 2989.4,503.8 2989.4,521.2 3011.1,521.2 3011.1,503.8 3017.7,503.8 3024.1,503.8 3024.1,521.2 
		3045.9,521.2 3045.9,503.8 3052.4,503.8 3058.9,503.8 3058.9,521.2 3080.6,521.2 3080.6,503.8 3087.2,503.8 3093.6,503.8 
		3093.6,521.2 3115.4,521.2 3115.4,503.8 3121.9,503.8 3128.4,503.8 3128.4,521.2 3150.1,521.2 3150.1,503.8 3156.7,503.8 
		3163.1,503.8 3163.1,521.2 3184.9,521.2 3184.9,503.8 3191.4,503.8 3197.9,503.8 3197.9,521.2 3219.6,521.2 3219.6,503.8 
		3226.1,503.8 3226.1,499.4 	"/>
	<path class="st0" d="M3226,313.6l-226.6-175.4l-225.1,175.4v185.7h451.9L3226,313.6L3226,313.6z M3085.5,339.4
		c-12.1,22-29,41.7-48.7,56.9c-8.2,6.4-16.6,11.7-25.1,15.9c-11.8,5.9-23.7,9.7-35.2,11.2c-33.6,4.4-55.3-15.7-55.3-46.6
		c0-7.7,1.4-16.1,4.2-24.9c6.8-21.2,22.3-43.2,41.8-59.1c18.3-14.9,37.4-22.5,53.9-21.4c14.9,1.5,24.8,11,27.4,25.9
		c1.9,16.4-5.8,35.2-20.4,50.8c-15.4,15.4-32.2,22.3-43.2,18c-10.6-3.9-13.1-14.6-6.5-27.4l0.3-0.6c0.2-0.4,0.4-0.7,0.6-1
		c3.8-7.2,14.3-13.2,18.2-11c8.6,4.8,12.6-6.9,6.9-9c-8.7-3.3-19.7,2.2-28.4,11.4c-6.8,7.9-11,16.4-12,24.7
		c-1.3,9.8,1.8,18,8.5,22.7c8.9,6.2,20.9,3.8,29.4,0.8c19.2-7.1,36.2-22.5,48.1-43.3c11.9-21.2,14-42.1,5.8-57.3
		c-7.9-13.7-24-19.5-44.3-15.7c-8,1.5-16.3,4.3-24.5,8.4c-14,6.9-27.8,17.3-39.8,30.3c-39.1,42.1-50.1,94.3-25.6,121.2
		c16.3,17.7,44.4,21.2,75.1,9.6c3.1-1.1,4-1.3,4.9-1.4c3.2-0.2,5,1.9,4.7,5.1c-0.1,0.7-0.3,1.5-0.6,2.3c-1.5,4-5.4,7.6-9.1,8.4
		c-0.1,0-0.6,0.2-1.5,0.5c-35.6,13.5-68,9.4-86.9-11c-9.9-10.9-15-25.9-15-43.4c0-6.5,0.7-13.3,2.2-20.5
		c5.4-26.7,20.8-54.7,43.2-78.9c15.1-16.3,32.5-29.2,50.1-37.5c9.1-4.3,18.2-7.3,27.1-8.9c24.7-4.6,44.5,2.5,54.1,19.4
		c10.2,19,7.5,45.2-7.4,71.9c-15.1,26.4-37.7,46.8-62.3,55.9c-16.2,5.8-30.3,5.4-39.8-1.3c-9.3-6.5-13.6-18.1-11.8-31.9
		c1.6-12.4,8.1-25.7,18.3-37.4c15.4-16.4,37.2-27.7,49.8-18.3c5.6,4.6,7.7,12.9,4.2,21.8c-2.5,6.3-6.8,11.3-12,14.1
		c-8.5,4.7-9.6-1.7-15.5,1.2c-2.4,1.2-7.3,7.4,1.7,10.9c7.2,2.8,17.8-4.1,24.7-10.9c9.5-10.2,14.4-22.6,13.3-33.3
		c-2-11.1-9-17.9-19.8-19c-12.4-0.8-26.9,5.1-40.8,16.4c-15.2,12.3-27.4,29.6-32.7,46.1c-11.5,35.7,7.6,62.1,41.7,57.6
		c10.3-1.3,20.9-4.9,31.2-10.3c23.4-12.3,45.4-33.9,59.9-60.1c13-23.5,17.8-46.1,14.2-67c-7.5-36-42.8-49.6-85.9-32.9
		c-4,1.5-7-0.1-7.1-3.7c0-0.2,0-0.5,0-0.8c0.4-4.2,4.1-8.8,8.4-10.4c24-9.3,47.1-10.6,65.1-3.8c18.2,6.9,30.5,21.9,34.8,42.2
		C3106.5,285.3,3100.8,311.7,3085.5,339.4L3085.5,339.4z"/>
	<path class="st0" d="M3226.7,21.5c-3.1,6.9-6.8,13.1-8.7,20.3c-0.2,0-0.1,0-0.3-0.1c0.8-8,1.4-15.9,1.4-23.9c-0.1-4-6.1-4-6.1,0
		c-0.1,8,0.6,16,1.4,24c-1.4-3-3.3-5.8-5.1-8.6c-2.4-3.9-5.1-11.6-10-12.6c-1-0.2-1.9,0.3-2.2,1.2c-1.5,5,4.7,10.4,7.5,14.1
		c2.2,2.9,4.2,5.9,6.5,8.6c-0.1,0.1-0.2,0.2-0.2,0.3c-0.1,0.1-0.2,0.3-0.3,0.4c0,0,0,0-0.1,0.1c-0.8,1.1-1.3,2.4-1.6,3.7h-27.3
		c-0.3-1.5-0.9-3-1.9-4.2c0,0-0.1-0.1-0.1-0.1c-0.6-0.7-1.2-1.3-1.9-1.7c3.9-6.1,9.7-11,13-17.5c1.7-3.4-4-6.4-5.9-3.1
		c-3.7,6.6-7.9,12.4-10.4,19.4c-0.2-0.1-0.1,0-0.3-0.1c1.4-7.9,2.8-15.7,3.4-23.7c0.3-3.9-5.7-4.5-6.1-0.5c-0.8,8-0.8,16-0.7,24.1
		c-1.1-3.1-2.8-6-4.4-9.1c-2.1-4-4.1-12-8.8-13.4c-1-0.3-1.9,0.1-2.3,1c-2,4.9,3.8,10.8,6.2,14.7c1.9,3.1,3.7,6.2,5.8,9.2
		c-0.1,0.1-0.2,0.2-0.3,0.3c-0.1,0.1-0.2,0.3-0.4,0.4c0,0-0.1,0.1-0.1,0.1c-1.1,1.2-1.8,2.7-2,4.3h-26.2c-0.3-1.5-0.9-3-1.9-4.2
		c0,0-0.1-0.1-0.1-0.1c-0.6-0.7-1.2-1.3-1.9-1.7c3.9-6.1,9.7-11,13-17.5c1.7-3.4-4-6.4-5.9-3.1c-3.7,6.6-7.9,12.4-10.4,19.4
		c-0.2-0.1-0.1,0-0.3-0.1c1.4-7.9,2.8-15.7,3.4-23.7c0.3-3.9-5.7-4.5-6.1-0.5c-0.8,8-0.8,16-0.7,24.1c-1.1-3.1-2.8-6-4.4-9.1
		c-2.1-4-4.1-12-8.8-13.4c-1-0.3-1.9,0.1-2.3,1c-2,4.9,3.8,10.8,6.2,14.7c1.9,3.1,3.7,6.2,5.8,9.2c-0.1,0.1-0.2,0.2-0.3,0.3
		c-0.1,0.2-0.3,0.3-0.4,0.5c0,0,0,0,0,0c-1.1,1.2-1.8,2.7-2,4.3h-27.5c-0.2-1.4-0.8-2.7-1.7-3.9c0,0-0.1-0.1-0.1-0.1
		c-0.5-0.7-1.1-1.3-1.9-1.8c4.1-5.9,10.2-10.5,13.8-16.9c1.8-3.3-3.7-6.6-5.7-3.4c-4,6.4-8.5,12-11.3,18.9c-0.2-0.1-0.1,0-0.3-0.1
		c1.8-7.8,3.5-15.6,4.5-23.5c0.5-3.9-5.5-4.7-6.1-0.8c-1.1,8-1.5,16-1.8,24c-1-3.1-2.5-6.1-3.9-9.2c-1.9-4.1-3.5-12.2-8.2-13.8
		c-0.9-0.3-1.9,0-2.3,1c-2.2,4.8,3.3,10.9,5.6,15c1.8,3.2,3.4,6.4,5.3,9.4c-0.1,0.1-0.2,0.2-0.3,0.2c-0.1,0.1-0.3,0.3-0.4,0.4
		c0,0,0,0,0,0c-1.2,1.3-2,2.9-2.3,4.6h-23.5c-0.3-1.7-1.1-3.2-2.2-4.6c0,0-0.1-0.1-0.1-0.1c-0.6-0.7-1.3-1.2-2-1.6
		c3.5-6.3,9.1-11.5,12-18.2c1.5-3.5-4.4-6.1-6-2.8c-3.3,6.8-7.2,12.8-9.4,20c-0.2,0-0.1,0-0.3-0.1c1-7.9,1.9-15.9,2.1-23.9
		c0.1-4-6-4.1-6.1-0.2c-0.4,8,0.1,16.1,0.6,24.1c-1.3-3-3.1-5.9-4.9-8.8c-2.3-3.9-4.7-11.8-9.6-12.9c-1-0.2-1.9,0.2-2.2,1.2
		c-1.7,5,4.4,10.5,7,14.3c2.1,3,4,6,6.2,8.8c-0.1,0.1-0.2,0.2-0.2,0.3c-0.1,0.2-0.3,0.3-0.4,0.5c0,0,0,0,0,0
		c-0.9,1.2-1.5,2.5-1.7,3.9h-27.3c-0.3-1.6-1-3-2-4.3c0,0-0.1-0.1-0.1-0.1c-0.6-0.7-1.2-1.2-2-1.7c3.8-6.2,9.5-11.1,12.7-17.7
		c1.6-3.4-4.1-6.3-5.9-3c-3.6,6.7-7.7,12.5-10.1,19.6c-0.2,0-0.1,0-0.3-0.1c1.3-7.9,2.6-15.8,3-23.8c0.2-4-5.8-4.4-6.1-0.4
		c-0.6,8-0.5,16.1-0.3,24.1c-1.2-3.1-2.9-6-4.5-9c-2.2-4-4.3-12-9.1-13.3c-1-0.3-1.9,0.1-2.3,1.1c-1.9,4.9,3.9,10.7,6.5,14.6
		c2,3,3.8,6.2,5.9,9.1c-0.1,0.1-0.2,0.2-0.3,0.3c-0.1,0.1-0.2,0.3-0.4,0.4c0,0,0,0-0.1,0.1c-1,1.2-1.7,2.7-1.9,4.2h-23.5
		c-0.3-1.8-1.2-3.6-2.6-5c0,0-0.1-0.1-0.1-0.1c-0.6-0.6-1.4-1.1-2.1-1.5c3.1-6.5,8.3-12,10.8-18.9c1.3-3.5-4.7-5.9-6.2-2.4
		c-2.9,7-6.4,13.2-8.1,20.5c-0.2,0-0.1,0-0.3,0c0.5-8,0.9-15.9,0.6-23.9c-0.2-4-6.2-3.8-6.1,0.2c0.2,8,1.1,16,2.1,24
		c-1.5-2.9-3.5-5.7-5.4-8.5c-2.6-3.8-5.5-11.5-10.4-12.3c-1-0.2-1.9,0.3-2.1,1.3c-1.4,5.1,5,10.2,7.9,13.9c2.3,2.8,4.4,5.8,6.8,8.4
		c-0.1,0.1-0.2,0.2-0.2,0.3c-0.1,0.2-0.2,0.3-0.3,0.5c0,0,0,0-0.1,0.1c-0.7,1.1-1.2,2.3-1.4,3.5h-26.4c-0.3-1.8-1.2-3.5-2.6-4.9
		c0,0-0.1-0.1-0.1-0.1c-0.6-0.6-1.4-1.1-2.1-1.5c3.2-6.5,8.4-12,11-18.9c1.3-3.5-4.7-5.9-6.2-2.4c-2.9,7-6.5,13.2-8.2,20.5
		c-0.2,0-0.1,0-0.4-0.1c0.6-8,1.1-15.9,0.8-23.9c-0.1-4-6.2-3.8-6.1,0.1c0.1,8.1,1,16,1.9,24c-1.5-3-3.4-5.7-5.3-8.5
		c-2.5-3.8-5.4-11.5-10.3-12.4c-1-0.2-1.9,0.3-2.2,1.3c-1.4,5,4.9,10.3,7.8,13.9c2.2,2.8,4.4,5.8,6.7,8.5c-0.1,0.1-0.2,0.2-0.2,0.3
		c-0.9,1.2-1.6,2.6-1.8,4.1h-27.3c-0.3-1.7-1.1-3.3-2.4-4.7c0,0-0.1-0.1-0.1-0.1c-0.6-0.7-1.3-1.2-2.1-1.6
		c3.4-6.3,8.9-11.6,11.7-18.4c1.4-3.5-4.5-6.1-6.1-2.7c-3.2,6.9-7,13-9,20.1c-0.2,0-0.1,0-0.4-0.1c0.9-7.9,1.7-15.9,1.7-23.9
		c0-4-6.1-4.1-6.1-0.1c-0.2,8,0.4,16.1,1,24.1c-1.4-3-3.2-5.8-5-8.7c-2.4-3.9-4.9-11.7-9.8-12.8c-1-0.2-1.9,0.2-2.2,1.2
		c-1.6,5,4.5,10.5,7.3,14.2c2.1,2.9,4.1,5.9,6.4,8.7c-0.1,0.1-0.2,0.2-0.2,0.3c-1.1,1.3-1.8,2.8-2.1,4.3h-25.9
		c-0.3-1.8-1.2-3.4-2.4-4.8c0,0-0.1-0.1-0.1-0.1c-0.6-0.6-1.3-1.2-2.1-1.6c3.3-6.4,8.7-11.8,11.4-18.6c1.4-3.5-4.6-6-6.1-2.6
		c-3.1,6.9-6.8,13.1-8.7,20.3c-0.2,0-0.1,0-0.3-0.1c0.8-8,1.4-15.9,1.4-23.9c-0.1-4-6.1-4-6.1,0c-0.1,8,0.6,16,1.4,24
		c-1.4-3-3.3-5.8-5.1-8.7c-2.4-3.9-5.1-11.6-10-12.6c-1-0.2-1.9,0.3-2.2,1.2c-1.5,5,4.7,10.4,7.5,14.1c2.2,2.9,4.2,5.9,6.5,8.6
		c-0.1,0.1-0.2,0.2-0.2,0.3c-0.1,0.1-0.2,0.3-0.3,0.4c0,0-0.1,0.1-0.1,0.1c-0.8,1.1-1.3,2.4-1.6,3.7h-26.2c-0.3-1.8-1.2-3.4-2.4-4.8
		c0,0-0.1-0.1-0.1-0.1c-0.6-0.6-1.3-1.2-2.1-1.6c3.3-6.4,8.7-11.8,11.4-18.6c1.4-3.5-4.6-6-6.1-2.6c-3.1,6.9-6.8,13.1-8.7,20.3
		c-0.2,0-0.1,0-0.3-0.1c0.8-8,1.4-15.9,1.4-23.9c-0.1-4-6.1-4-6.1,0c-0.1,8,0.6,16,1.4,24c-1.4-3-3.3-5.8-5.1-8.7
		c-2.4-3.9-5.1-11.6-10-12.6c-1-0.2-1.9,0.3-2.2,1.2c-1.5,5,4.7,10.4,7.5,14.1c2.2,2.9,4.2,5.9,6.5,8.6c-0.1,0.1-0.2,0.2-0.2,0.3
		c-0.1,0.1-0.2,0.3-0.3,0.4c0,0-0.1,0.1-0.1,0.1c-0.8,1.1-1.7,2.4-1.9,3.7v232.1l225.9-178.2l225.9,178.2V53c0-0.5,0-0.9,0.1-1.4
		c0.2-2.6-0.6-5.2-2.5-7.2c0,0-0.1-0.1-0.1-0.1c-0.6-0.6-1.3-1.2-2.1-1.6c3.3-6.4,8.7-11.8,11.4-18.6
		C3234.1,20.6,3228.2,18.1,3226.7,21.5L3226.7,21.5z M2807.6,106.9c-3.4,4.4-4.2,17.3-4.2,17.3s-0.8-12.9-4.2-17.3
		c-3.6-4.7-11.5-5.8-11.5-5.8s7.8-1.1,11.5-5.8c3.4-4.4,4.2-17.3,4.2-17.3s0.8,12.9,4.2,17.3c3.6,4.7,11.5,5.8,11.5,5.8
		S2811.2,102.2,2807.6,106.9z M2856,171.5c-1.7,2.2-2.1,8.6-2.1,8.6s-0.4-6.5-2.1-8.6c-1.8-2.4-5.7-2.9-5.7-2.9s3.9-0.5,5.7-2.9
		c1.7-2.2,2.1-8.6,2.1-8.6s0.4,6.5,2.1,8.6c1.8,2.4,5.7,2.9,5.7,2.9S2857.8,169.2,2856,171.5z M3004.5,84
		c-3.4,4.4-4.2,17.3-4.2,17.3s-0.8-12.9-4.2-17.3c-3.6-4.7-11.5-5.8-11.5-5.8s7.8-1.1,11.5-5.8c3.4-4.4,4.2-17.3,4.2-17.3
		s0.8,12.9,4.2,17.3c3.6,4.7,11.5,5.8,11.5,5.8S3008.1,79.2,3004.5,84z M3139.6,171.5c-1.7,2.2-2.1,8.6-2.1,8.6s-0.4-6.5-2.1-8.6
		c-1.8-2.4-5.7-2.9-5.7-2.9s3.9-0.5,5.7-2.9c1.7-2.2,2.1-8.6,2.1-8.6s0.4,6.5,2.1,8.6c1.8,2.4,5.7,2.9,5.7,2.9
		S3141.4,169.2,3139.6,171.5z M3199.4,106.9c-3.4,4.4-4.2,17.3-4.2,17.3s-0.8-12.9-4.2-17.3c-3.6-4.7-11.5-5.8-11.5-5.8
		s7.8-1.1,11.5-5.8c3.4-4.4,4.2-17.3,4.2-17.3s0.8,12.9,4.2,17.3c3.6,4.7,11.5,5.8,11.5,5.8S3203,102.2,3199.4,106.9z"/>
	<g>
		<g>
			<rect x="2774.3" y="476.4" class="st0" width="37.8" height="1.5"/>
			<rect x="2774.3" y="481.8" class="st0" width="37.8" height="1.5"/>
			<rect x="2774.3" y="492.6" class="st0" width="37.8" height="1.5"/>
			<rect x="2774.3" y="487.2" class="st0" width="37.8" height="1.5"/>
			<rect x="2774.3" y="498" class="st0" width="37.8" height="1.5"/>
		</g>
		<g>
			<rect x="2812.1" y="476.4" class="st0" width="37.6" height="1.5"/>
			<rect x="2812.1" y="481.8" class="st0" width="37.6" height="1.5"/>
			<rect x="2812.1" y="492.6" class="st0" width="37.6" height="1.5"/>
			<rect x="2812.1" y="487.2" class="st0" width="37.6" height="1.5"/>
			<rect x="2812.1" y="498" class="st0" width="37.6" height="1.5"/>
		</g>
		<g>
			<rect x="2849.7" y="476.4" class="st0" width="37.6" height="1.5"/>
			<rect x="2849.7" y="481.8" class="st0" width="37.6" height="1.5"/>
			<rect x="2849.7" y="492.6" class="st0" width="37.6" height="1.5"/>
			<rect x="2849.7" y="487.2" class="st0" width="37.6" height="1.5"/>
			<rect x="2849.7" y="498" class="st0" width="37.6" height="1.5"/>
		</g>
		<g>
			<rect x="2887.4" y="476.4" class="st0" width="37.6" height="1.5"/>
			<rect x="2887.4" y="481.8" class="st0" width="37.6" height="1.5"/>
			<rect x="2887.4" y="492.6" class="st0" width="37.6" height="1.5"/>
			<rect x="2887.4" y="487.2" class="st0" width="37.6" height="1.5"/>
			<rect x="2887.4" y="498" class="st0" width="37.6" height="1.5"/>
		</g>
		<g>
			<rect x="2925" y="476.4" class="st0" width="37.6" height="1.5"/>
			<rect x="2925" y="481.8" class="st0" width="37.6" height="1.5"/>
			<rect x="2925" y="492.6" class="st0" width="37.6" height="1.5"/>
			<rect x="2925" y="487.2" class="st0" width="37.6" height="1.5"/>
			<rect x="2925" y="498" class="st0" width="37.6" height="1.5"/>
		</g>
		<g>
			<rect x="2962.6" y="476.4" class="st0" width="37.6" height="1.5"/>
			<rect x="2962.6" y="481.8" class="st0" width="37.6" height="1.5"/>
			<rect x="2962.6" y="492.6" class="st0" width="37.6" height="1.5"/>
			<rect x="2962.6" y="487.2" class="st0" width="37.6" height="1.5"/>
			<rect x="2962.6" y="498" class="st0" width="37.6" height="1.5"/>
		</g>
		<g>
			<rect x="3000.3" y="476.4" class="st0" width="37.6" height="1.5"/>
			<rect x="3000.3" y="481.8" class="st0" width="37.6" height="1.5"/>
			<rect x="3000.3" y="492.6" class="st0" width="37.6" height="1.5"/>
			<rect x="3000.3" y="487.2" class="st0" width="37.6" height="1.5"/>
			<rect x="3000.3" y="498" class="st0" width="37.6" height="1.5"/>
		</g>
		<g>
			<rect x="3037.9" y="476.4" class="st0" width="37.6" height="1.5"/>
			<rect x="3037.9" y="481.8" class="st0" width="37.6" height="1.5"/>
			<rect x="3037.9" y="492.6" class="st0" width="37.6" height="1.5"/>
			<rect x="3037.9" y="487.2" class="st0" width="37.6" height="1.5"/>
			<rect x="3037.9" y="498" class="st0" width="37.6" height="1.5"/>
		</g>
		<g>
			<rect x="3075.6" y="476.4" class="st0" width="37.6" height="1.5"/>
			<rect x="3075.6" y="481.8" class="st0" width="37.6" height="1.5"/>
			<rect x="3075.6" y="492.6" class="st0" width="37.6" height="1.5"/>
			<rect x="3075.6" y="487.2" class="st0" width="37.6" height="1.5"/>
			<rect x="3075.6" y="498" class="st0" width="37.6" height="1.5"/>
		</g>
		<g>
			<rect x="3113.2" y="476.4" class="st0" width="37.6" height="1.5"/>
			<rect x="3113.2" y="481.8" class="st0" width="37.6" height="1.5"/>
			<rect x="3113.2" y="492.6" class="st0" width="37.6" height="1.5"/>
			<rect x="3113.2" y="487.2" class="st0" width="37.6" height="1.5"/>
			<rect x="3113.2" y="498" class="st0" width="37.6" height="1.5"/>
		</g>
		<g>
			<rect x="3150.9" y="476.4" class="st0" width="37.6" height="1.5"/>
			<rect x="3150.9" y="481.8" class="st0" width="37.6" height="1.5"/>
			<rect x="3150.9" y="492.6" class="st0" width="37.6" height="1.5"/>
			<rect x="3150.9" y="487.2" class="st0" width="37.6" height="1.5"/>
			<rect x="3150.9" y="498" class="st0" width="37.6" height="1.5"/>
		</g>
		<g>
			<rect x="3188.5" y="476.4" class="st0" width="37.6" height="1.5"/>
			<rect x="3188.5" y="481.8" class="st0" width="37.6" height="1.5"/>
			<rect x="3188.5" y="492.6" class="st0" width="37.6" height="1.5"/>
			<rect x="3188.5" y="487.2" class="st0" width="37.6" height="1.5"/>
			<rect x="3188.5" y="498" class="st0" width="37.6" height="1.5"/>
		</g>
	</g>
</g>
</svg>
